# xmcd
#
# Track frame offsets: 
#        150
#        20755
#        42524
#        62111
#        85295
#        105169
#        125172
#        146227
#        165447
#        186467
#        210016
#        229977
#        250499
#        274554
#        292864
#        310660
#        330478
#
# Disc length: 4711 seconds
#
# Revision: 0
# Processed by: cddbd v1.5.2PL0 Copyright (c) Steve Scherf et al.
# Submitted via: ExactAudioCopy v1.0b1
#
DISCID=f3126511
DTITLE=Ho Ngoc Ha - Love Songs Collection - Noi Em Gap Anh
DYEAR=2008
DGENRE=Pop
TTITLE0=Cho Em Mot Lan Cuoi
TTITLE1=Bien Nho
TTITLE2=Con Gio Thoang
TTITLE3=Van Biet The (Bossa Version) (featuring Duc Tri)
TTITLE4=Giac Mo Tim Khong Thay
TTITLE5=Uoc Mot Ngay
TTITLE6=Yeu Thuong Mong Manh
TTITLE7=Noi Em Gap Anh
TTITLE8=Va Em Da Yeu (Acoustic)
TTITLE9=Dem Nghe Tieng Mua
TTITLE10=Ngay Thang Con Do (featuring Quang Dung)
TTITLE11=Giac Mo Chi La Giac Mo
TTITLE12=Hom Nay Anh Den
TTITLE13=Em Van Muon Yeu Anh (Tango Version)
TTITLE14=Chi Tai Vo Tinh
TTITLE15=Co Bao Gio
TTITLE16=Van Biet The (Slow Version) (featuring Duc Tri)
EXTD=
EXTT0=
EXTT1=
EXTT2=
EXTT3=
EXTT4=
EXTT5=
EXTT6=
EXTT7=
EXTT8=
EXTT9=
EXTT10=
EXTT11=
EXTT12=
EXTT13=
EXTT14=
EXTT15=
EXTT16=
PLAYORDER=
